<svg xmlns="http://www.w3.org/2000/svg" version="1.1" xmlns:xlink="http://www.w3.org/1999/xlink" width="1000" height="1000"><metadata><rdf:RDF xmlns:rdf="http://www.w3.org/1999/02/22-rdf-syntax-ns#" xmlns:dc="http://purl.org/dc/elements/1.1/"><rdf:Description><dc:creator>RealFaviconGenerator</dc:creator><dc:source>https://realfavicongenerator.net</dc:source></rdf:Description></rdf:RDF></metadata><g clip-path="url(#SvgjsClipPath1193)"><rect width="1000" height="1000" fill="#fdfcf8"></rect><g transform="matrix(0.9962640099626401,0,0,0.9962640099626401,144.83188044831883,100)"><svg xmlns="http://www.w3.org/2000/svg" xmlns:xlink="http://www.w3.org/1999/xlink" width="713" height="803" viewBox="0 0 713 803"><clipPath id="cl_3"><rect width="713" height="803"></rect></clipPath><g clip-path="url(#cl_3)"><path fill="#2C3638" transform="translate(-255 -160)" d="M500.465 261.701C535.915 258.273 575.237 270.989 604.23 291.171C641.417 317.397 666.833 357.162 675.02 401.924C683.959 452.719 671.525 495.838 642.457 537.495L654.199 549.134C666.844 547.272 670.905 548.762 679.986 557.824C701.717 579.412 723.024 601.464 744.608 623.195C755.83 634.494 755.316 652.199 744.031 663.092C738.365 668.544 730.755 671.506 722.894 671.32C707.631 670.993 697.237 656.38 687.058 646.081L649.673 608.422C639.537 598.065 623.594 588.364 631.96 572.225C628.325 568.561 624.754 564.646 621.223 560.868C593.344 584.011 566.365 598.31 529.679 602.343C485.276 607.225 441.893 594.452 407.183 566.138C371.873 537.004 349.412 495.172 344.635 449.644C340.16 403.57 354.245 357.614 383.767 321.958C413.936 285.85 453.86 265.958 500.465 261.701ZM520.033 574.317C598.324 569.276 657.73 501.766 652.773 423.47C647.816 345.175 580.37 285.695 502.069 290.568C423.649 295.448 364.06 363.02 369.025 441.434C373.989 519.849 441.624 579.365 520.033 574.317Z"></path><path fill="#A54922" transform="translate(-255 -160)" d="M508.671 410.471C510.26 410.598 511.914 410.737 513.47 411.079C519.165 412.292 524.085 415.852 527.018 420.883C533.798 432.569 529.244 444.991 517.8 451.355C520.716 491.06 526.912 533.472 529.074 572.313C521.342 573.325 516.519 573.698 508.712 573.694C502.198 573.707 494.578 572.805 488.147 571.802C491.641 532.642 496.588 490.206 499.024 451.256C492.464 447.352 488.244 442.109 487.411 434.298C486.747 428.386 488.546 422.462 492.384 417.917C497.069 412.45 501.989 411.131 508.671 410.471Z"></path><path fill="#A54922" transform="translate(-255 -160)" d="M437.456 365.568C440.899 366.097 444.053 367.19 446.075 370.266C447.289 372.126 447.587 374.44 446.885 376.548C445.777 379.833 441.062 385.827 438.968 388.945C422.54 413.412 421.486 445.239 436.263 470.758C441.744 480.223 455.569 489.506 440.308 497.882C432.953 497.918 430.995 494.175 426.915 488.697C420.015 479.432 415.142 469.694 411.871 458.56C404.664 434.24 407.5 408.046 419.747 385.832C423.269 379.426 430.334 367.621 437.456 365.568Z"></path><path fill="#A54922" transform="translate(-255 -160)" d="M577.512 365.574C578.376 365.663 581.102 366.074 581.708 366.42C590.965 371.722 600.283 391.297 603.492 400.421C611.955 424.216 610.434 450.422 599.277 473.079C595.59 480.612 587.402 495.188 579.246 497.955C573.739 497.228 567.253 491.391 570.367 486.406C577.424 475.108 583.065 467.926 587.241 454.868C593.917 434.419 591.627 412.099 580.937 393.431C575.476 383.995 561.037 372.71 577.512 365.574Z"></path><path fill="#A54922" transform="translate(-255 -160)" d="M549.334 392.539C555.828 392.229 559.023 395.297 562.344 400.7C570.552 414.205 573.062 430.415 569.322 445.77C567.218 454.155 562.079 465.934 554.431 470.505C535.104 472.04 546.987 453.023 550.484 445.615C556.382 433.119 552.886 419.616 545.815 408.482C541.483 401.662 542.604 396.936 549.334 392.539Z"></path><path fill="#A54922" transform="translate(-255 -160)" d="M463.565 392.503C484.991 393.774 465.672 414.314 463.951 424.823C461.909 437.287 464.665 445.291 471.574 455.894C476.098 462.835 473.748 467.675 466.509 470.849C457.074 470.236 455.402 462.93 451.165 456.194C441.468 440.775 445.297 400.68 463.565 392.503Z"></path><path fill="#2C3638" transform="translate(-255 -160)" d="M555.57 180.204C599.789 179.445 646.376 180.091 690.758 180.059L734.394 180.041C742.804 180.04 751.847 179.726 760.14 180.619C765.179 181.162 766.722 182.028 770.311 185.66C783.593 199.099 796.576 213.69 809.425 227.58L833.688 253.819C836.35 256.702 849.3 270.597 849.568 272.457C852.16 290.472 851.119 328.318 851.123 345.018L851.062 461.708L851.088 523.908C851.093 530.144 851.509 549.355 850.797 554.845C850.149 559.743 847.964 564.31 844.556 567.887C837.576 575.087 830.527 575.679 821.143 575.584C812.253 575.494 803.291 575.46 794.397 575.448L712.793 575.523C707.482 570.644 700.788 563.094 695.834 557.731C710.08 557.226 726.853 557.721 741.195 557.959L795.051 557.99C804.611 557.991 814.234 558.221 823.782 557.667C830.231 557.293 833.211 555.748 833.264 548.946C833.407 530.339 833.355 511.728 833.36 493.121L833.371 384.662L833.382 318.797C833.38 308.463 833.886 291.17 832.786 281.388C828.082 276.242 795.461 281.03 784.689 277.551C750.866 266.627 756.619 238.387 756.506 210.014C756.499 208.362 756.66 200.933 755.1 199.214C749.284 197.487 726.064 198.197 720.644 198.185L655.646 198.112L593.422 198.06C582.293 198.024 571.161 197.865 560.032 198.064C555.454 198.146 549.974 199.35 549.144 204.753C548.155 211.192 548.548 218.245 548.565 224.782L548.562 254.851L531.01 251.905C530.711 244.305 530.238 208.035 531.265 202.031C531.935 197.896 533.554 193.973 535.994 190.568C541.077 183.609 547.545 181.463 555.57 180.204Z"></path><path fill="#2C3638" transform="translate(-255 -160)" d="M827.252 700.797C847.525 700.46 889.982 698.489 907.338 704.869C919.112 709.197 928.564 716.95 933.777 728.495C939.365 740.872 939.909 756.251 934.997 768.945C929.823 782.314 919.988 789.48 907.275 795.066C914.142 804.802 921.658 817.312 928.277 827.358C933.12 834.708 942.42 848.738 946.239 856.22L911.132 856.233C906.372 851.922 880.442 808.067 875.216 799.666C867.017 799.583 858.817 799.588 850.618 799.681C850.399 818.453 851.068 837.453 850.576 856.212C840.441 855.987 829.649 856.16 819.462 856.146C818.873 804.829 819.336 752.435 819.371 701.033L827.252 700.797ZM851.005 773.043C865.151 772.781 885.423 775.466 896.893 768.942C901.835 765.213 904.836 761.567 905.513 755.152C908.869 723.345 876.654 728.091 855.737 728.278C853.527 728.418 852.655 728.081 851.124 729.149C850.283 740.797 850.932 760.796 851.005 773.043Z"></path><path fill="#2C3638" transform="translate(-255 -160)" d="M458.514 700.725C467.785 700.931 478.096 700.657 487.45 700.614L569.952 803.86C569.488 769.782 569.864 734.889 569.816 700.729C580.262 700.539 591.037 700.65 601.51 700.628L601.485 856.402C591.655 856.166 581.534 856.288 571.68 856.294C561.627 844.575 550.544 829.891 540.849 817.66L489.892 753.741C490.343 766.433 490.011 780.27 489.992 793.104L490.079 856.39C479.625 856.203 469.169 856.15 458.713 856.23C458.039 804.898 458.57 752.16 458.514 700.725Z"></path><path fill="#2C3638" transform="translate(-255 -160)" d="M707.847 697.644C739.234 694.185 768.304 708.018 783.479 735.888C776.245 740.701 764.654 746.77 756.971 751.044C746.98 735.703 735.637 727.249 716.393 727.042C669.332 726.025 652.1 787.803 683.747 817.426C703.247 835.68 734.076 833.407 751.785 814.013C754.483 810.732 755.12 809.658 757.159 806.018C764.227 809.386 776.43 816.881 783.616 820.958C781.912 824.645 779.784 828.121 777.275 831.315C751.228 864.614 697.446 868.02 665.1 842.384C648.724 829.232 638.279 810.085 636.086 789.196C630.784 741.939 659.939 702.574 707.847 697.644Z"></path><path fill="#2C3638" transform="translate(-255 -160)" d="M349.4 697.64C380.309 693.767 410.28 708.705 425.059 736.174L398.393 751.276C396.047 747.349 394.159 744.358 390.998 740.991C382.679 732.157 371.142 727.063 359.009 726.867C328.858 726.26 309.54 748.768 309.161 777.923C308.555 824.579 360.214 847.714 393.291 813.786C395.159 811.451 396.896 808.594 398.538 806.062C404.883 808.943 418.569 817.326 425.156 821.114C422.932 825.138 420.983 828.161 418.088 831.765C405.875 846.837 388.17 856.434 368.875 858.442C255.189 870.775 244.681 708.219 349.4 697.64Z"></path><path fill="#A54922" transform="translate(-255 -160)" d="M712.156 272.062C715.128 271.952 718.101 271.874 721.074 271.83C735.278 271.744 731.142 285.13 731.242 296.196C736.791 296.221 748.883 294.63 752.116 297.659C756.087 301.379 756.943 319.49 748.439 319.767C742.468 319.962 736.754 319.622 731.156 319.578C731.062 325.634 732.263 335.78 730.221 341.257C729.694 342.673 728.032 343.21 726.698 343.688C703.756 344.959 707.485 340.39 707.966 319.579C699.682 319.442 675.654 325.916 686.562 298.046C687.813 294.85 703.476 296.21 707.953 296.164C708.052 289.631 706.984 281.82 708.477 275.532C708.966 273.474 710.427 272.896 712.156 272.062Z"></path><path fill="#A54922" transform="translate(-255 -160)" d="M367.283 891.272L367.606 891.583C367.194 897.799 354.559 933.71 351.854 942.151L341.567 942.129C338.228 930.712 332.789 916.644 330.169 905.614C326.808 917.197 322.225 930.388 318.529 941.991C314.995 942.168 311.434 942.083 307.893 942.054C304.582 930.065 299.642 916.115 295.898 903.925L291.532 891.41L302.48 891.26L313.557 927.653C317.128 915.516 321.345 903.546 324.948 891.204L335.083 891.325C338.578 903.456 342.991 915.583 346.333 927.836C350.141 916.26 353.737 903.068 357.22 891.277L367.283 891.272Z"></path><path fill="#2C3638" transform="translate(-255 -160)" d="M702.082 489.967C707.656 489.552 716.26 489.783 722.046 489.77L757.641 489.711C768.364 489.7 782.421 489.056 792.858 490.032C800.844 490.778 803.884 501.715 794.407 507.373C765.059 508.759 733.415 506.818 703.924 507.252C695.691 507.373 692.581 495.697 702.082 489.967Z"></path><path fill="#2C3638" transform="translate(-255 -160)" d="M702.796 387.776C713.856 387.443 789.637 386.72 794.778 388.48C797.009 389.243 798.856 391.249 799.825 393.348C800.671 395.18 800.896 397.324 800.173 399.235C798.98 402.387 796.643 403.941 793.733 405.35C781.503 405.686 707.907 406.474 701.394 404.667C699.489 404.138 697.959 402.674 697.146 400.9C695.98 398.359 695.856 394.574 697.055 392.024C698.218 389.549 700.377 388.687 702.796 387.776Z"></path><path fill="#2C3638" transform="translate(-255 -160)" d="M702.025 439.177C710.547 438.409 789.813 438.131 794.002 439.396C796.142 440.043 798.43 441.915 799.473 443.888C800.555 445.939 800.727 448.544 799.968 450.731C798.93 453.718 796.571 454.992 793.899 456.34C789.941 456.621 786.093 456.646 782.114 456.621C756.048 456.416 729.787 457.09 703.752 456.293C695.744 456.048 692.61 444.913 702.025 439.177Z"></path><path fill="#A54922" transform="translate(-255 -160)" d="M903.509 891.445C919.82 890.651 948.419 887.299 941.279 914.346C940.306 918.032 935.794 920.998 932.45 922.36C937.022 928.797 941.254 935.468 945.128 942.348L933.669 942.273C929.944 936.992 925.473 929.406 921.981 923.807L913.267 923.827C912.913 930.755 913.077 935.378 913.375 942.269L903.441 942.177L903.509 891.445ZM913.505 915.264C919.392 915.245 925.695 915.941 930.625 913.017C936.895 898.266 922.614 899.936 912.958 899.829C913.008 904.371 912.884 910.922 913.505 915.264Z"></path><path fill="#A54922" transform="translate(-255 -160)" d="M433.022 891.281L443.513 891.33C450.237 906.162 458.401 926.833 464.319 942.099L453.563 942.204L449.103 930.948L445.867 930.99C439.699 930.846 433.17 930.926 426.973 930.907C425.645 934.687 424.212 938.429 422.676 942.129L411.869 942.262C418.927 926.873 426.383 907.227 433.022 891.281ZM430.346 922.539C432.734 922.615 435.392 922.764 437.754 922.763C440.404 922.711 443.27 922.712 445.898 922.552C443.435 916.121 440.959 909.311 438.186 903.039L430.346 922.539Z"></path><path fill="#A54922" transform="translate(-255 -160)" d="M738.302 891.043L748.28 891.079C748.422 908.015 748.407 924.951 748.234 941.885L738.436 942.109C738.187 935.085 738.27 927.846 738.26 920.803L714.592 920.868C714.705 927.64 714.584 934.753 714.568 941.553C713.48 942.571 706.656 942.17 704.777 942.152L704.878 891.329L714.578 891.436L714.71 911.844C722.613 911.696 730.518 911.666 738.422 911.754L738.302 891.043Z"></path><path fill="#A54922" transform="translate(-255 -160)" d="M808.811 890.993C820.472 891.244 832.704 891.05 844.407 891.04L844.395 900.122C836.057 900 827.538 900.079 819.185 900.068L819.231 911.957C826.594 912.039 833.958 911.991 841.319 911.815L841.396 920.927L819.239 920.799L819.275 933.22L845.023 933.225L844.983 942.151L808.938 942.218C808.817 925.14 809.073 908.09 808.811 890.993Z"></path><path fill="#A54922" transform="translate(-255 -160)" d="M620.691 890.446C633.604 889.859 640.283 891.602 647.248 902.96C643.988 905.141 642.269 905.981 638.765 907.681C635.969 903.954 633.166 901.115 628.481 899.885C624.468 898.831 620.196 899.548 616.747 901.855C598.254 914.055 615.536 945.087 635.602 929.973L639.065 925.488C641.898 927.304 644.721 929.134 647.536 930.979C639.811 942.933 623.774 946.7 611.58 939.591C605.392 935.935 600.981 929.895 599.381 922.888C595.719 907.161 605.174 893.767 620.691 890.446Z"></path><path fill="#A54922" transform="translate(-255 -160)" d="M508.677 891.285C522.407 891.2 536.138 891.223 549.868 891.352L549.919 900.204L534.403 900.262C534.532 909.407 534.431 918.783 534.439 927.948L534.293 942.209L524.428 942.307L524.457 900.239L508.61 900.235L508.677 891.285Z"></path></g></svg></g></g><defs><clipPath id="SvgjsClipPath1193"><rect width="1000" height="1000" x="0" y="0" rx="250" ry="250"></rect></clipPath></defs></svg>